<mxfile host="app.diagrams.net" agent="Mozilla/5.0 (Windows NT 10.0; Win64; x64) AppleWebKit/537.36 (KHTML, like Gecko) Chrome/131.0.0.0 Safari/537.36" version="25.0.3">
  <diagram name="Page-1" id="2478KSWhGeDUSXAjPmVK">
    <mxGraphModel dx="2117" dy="565" grid="1" gridSize="10" guides="1" tooltips="1" connect="1" arrows="1" fold="1" page="1" pageScale="1" pageWidth="827" pageHeight="1169" math="0" shadow="0">
      <root>
        <mxCell id="0" />
        <mxCell id="1" parent="0" />
        <mxCell id="j0-GHHuy1S8IRqCgDFHG-1" value="&lt;b&gt;USER&lt;/b&gt;" style="rounded=0;whiteSpace=wrap;html=1;fillColor=#d5e8d4;strokeColor=#82b366;" parent="1" vertex="1">
          <mxGeometry x="40" y="240" width="130" height="40" as="geometry" />
        </mxCell>
        <mxCell id="j0-GHHuy1S8IRqCgDFHG-2" value="&lt;b&gt;&lt;i&gt;user_id&lt;/i&gt;&lt;/b&gt;" style="ellipse;whiteSpace=wrap;html=1;fillColor=#ffe6cc;strokeColor=#d79b00;" parent="1" vertex="1">
          <mxGeometry x="-60" y="90" width="90" height="50" as="geometry" />
        </mxCell>
        <mxCell id="j0-GHHuy1S8IRqCgDFHG-5" value="" style="endArrow=none;html=1;rounded=0;exitX=0.5;exitY=0;exitDx=0;exitDy=0;" parent="1" source="j0-GHHuy1S8IRqCgDFHG-1" target="j0-GHHuy1S8IRqCgDFHG-2" edge="1">
          <mxGeometry width="50" height="50" relative="1" as="geometry">
            <mxPoint x="390" y="320" as="sourcePoint" />
            <mxPoint x="440" y="270" as="targetPoint" />
          </mxGeometry>
        </mxCell>
        <mxCell id="j0-GHHuy1S8IRqCgDFHG-6" value="name" style="ellipse;whiteSpace=wrap;html=1;" parent="1" vertex="1">
          <mxGeometry x="20" y="50" width="100" height="55" as="geometry" />
        </mxCell>
        <mxCell id="j0-GHHuy1S8IRqCgDFHG-7" value="" style="endArrow=none;html=1;rounded=0;entryX=0.588;entryY=1.018;entryDx=0;entryDy=0;entryPerimeter=0;exitX=0.5;exitY=0;exitDx=0;exitDy=0;" parent="1" source="j0-GHHuy1S8IRqCgDFHG-1" target="j0-GHHuy1S8IRqCgDFHG-6" edge="1">
          <mxGeometry width="50" height="50" relative="1" as="geometry">
            <mxPoint x="390" y="320" as="sourcePoint" />
            <mxPoint x="310" y="170" as="targetPoint" />
          </mxGeometry>
        </mxCell>
        <mxCell id="j0-GHHuy1S8IRqCgDFHG-10" value="email(username)" style="ellipse;whiteSpace=wrap;html=1;" parent="1" vertex="1">
          <mxGeometry x="130" y="40" width="130" height="60" as="geometry" />
        </mxCell>
        <mxCell id="j0-GHHuy1S8IRqCgDFHG-11" value="" style="endArrow=none;html=1;rounded=0;entryX=0.5;entryY=1;entryDx=0;entryDy=0;exitX=0.5;exitY=0;exitDx=0;exitDy=0;" parent="1" source="j0-GHHuy1S8IRqCgDFHG-1" target="j0-GHHuy1S8IRqCgDFHG-10" edge="1">
          <mxGeometry width="50" height="50" relative="1" as="geometry">
            <mxPoint x="390" y="320" as="sourcePoint" />
            <mxPoint x="440" y="270" as="targetPoint" />
          </mxGeometry>
        </mxCell>
        <mxCell id="j0-GHHuy1S8IRqCgDFHG-12" value="user_pw" style="ellipse;whiteSpace=wrap;html=1;" parent="1" vertex="1">
          <mxGeometry x="270" y="57.5" width="90" height="40" as="geometry" />
        </mxCell>
        <mxCell id="j0-GHHuy1S8IRqCgDFHG-13" value="about" style="ellipse;whiteSpace=wrap;html=1;" parent="1" vertex="1">
          <mxGeometry x="310" y="110" width="100" height="50" as="geometry" />
        </mxCell>
        <mxCell id="j0-GHHuy1S8IRqCgDFHG-14" value="" style="endArrow=none;html=1;rounded=0;exitX=0.5;exitY=0;exitDx=0;exitDy=0;entryX=0.411;entryY=1.008;entryDx=0;entryDy=0;entryPerimeter=0;" parent="1" source="j0-GHHuy1S8IRqCgDFHG-1" target="j0-GHHuy1S8IRqCgDFHG-12" edge="1">
          <mxGeometry width="50" height="50" relative="1" as="geometry">
            <mxPoint x="390" y="320" as="sourcePoint" />
            <mxPoint x="300" y="100" as="targetPoint" />
          </mxGeometry>
        </mxCell>
        <mxCell id="j0-GHHuy1S8IRqCgDFHG-15" value="" style="endArrow=none;html=1;rounded=0;entryX=0;entryY=1;entryDx=0;entryDy=0;exitX=0.5;exitY=0;exitDx=0;exitDy=0;" parent="1" source="j0-GHHuy1S8IRqCgDFHG-1" target="j0-GHHuy1S8IRqCgDFHG-13" edge="1">
          <mxGeometry width="50" height="50" relative="1" as="geometry">
            <mxPoint x="390" y="320" as="sourcePoint" />
            <mxPoint x="440" y="270" as="targetPoint" />
          </mxGeometry>
        </mxCell>
        <mxCell id="j0-GHHuy1S8IRqCgDFHG-16" value="&lt;b&gt;BLOG&lt;/b&gt;" style="rounded=0;whiteSpace=wrap;html=1;fillColor=#d5e8d4;strokeColor=#82b366;" parent="1" vertex="1">
          <mxGeometry x="570" y="240" width="120" height="40" as="geometry" />
        </mxCell>
        <mxCell id="j0-GHHuy1S8IRqCgDFHG-17" value="blog_id" style="ellipse;whiteSpace=wrap;html=1;" parent="1" vertex="1">
          <mxGeometry x="440" y="120" width="120" height="50" as="geometry" />
        </mxCell>
        <mxCell id="j0-GHHuy1S8IRqCgDFHG-18" value="" style="endArrow=none;html=1;rounded=0;entryX=0.5;entryY=1;entryDx=0;entryDy=0;exitX=0.5;exitY=0;exitDx=0;exitDy=0;" parent="1" source="j0-GHHuy1S8IRqCgDFHG-16" target="j0-GHHuy1S8IRqCgDFHG-17" edge="1">
          <mxGeometry width="50" height="50" relative="1" as="geometry">
            <mxPoint x="610" y="240" as="sourcePoint" />
            <mxPoint x="440" y="270" as="targetPoint" />
          </mxGeometry>
        </mxCell>
        <mxCell id="j0-GHHuy1S8IRqCgDFHG-19" value="title" style="ellipse;whiteSpace=wrap;html=1;" parent="1" vertex="1">
          <mxGeometry x="490" y="52.5" width="110" height="50" as="geometry" />
        </mxCell>
        <mxCell id="j0-GHHuy1S8IRqCgDFHG-20" value="content" style="ellipse;whiteSpace=wrap;html=1;" parent="1" vertex="1">
          <mxGeometry x="710" y="70" width="100" height="50" as="geometry" />
        </mxCell>
        <mxCell id="j0-GHHuy1S8IRqCgDFHG-21" value="image" style="ellipse;whiteSpace=wrap;html=1;" parent="1" vertex="1">
          <mxGeometry x="790" y="120" width="110" height="50" as="geometry" />
        </mxCell>
        <mxCell id="j0-GHHuy1S8IRqCgDFHG-22" value="" style="endArrow=none;html=1;rounded=0;entryX=0.5;entryY=1;entryDx=0;entryDy=0;exitX=0.5;exitY=0;exitDx=0;exitDy=0;" parent="1" source="j0-GHHuy1S8IRqCgDFHG-16" target="j0-GHHuy1S8IRqCgDFHG-19" edge="1">
          <mxGeometry width="50" height="50" relative="1" as="geometry">
            <mxPoint x="612" y="240" as="sourcePoint" />
            <mxPoint x="440" y="270" as="targetPoint" />
          </mxGeometry>
        </mxCell>
        <mxCell id="j0-GHHuy1S8IRqCgDFHG-23" value="" style="endArrow=none;html=1;rounded=0;entryX=0;entryY=1;entryDx=0;entryDy=0;exitX=0.5;exitY=0;exitDx=0;exitDy=0;" parent="1" source="j0-GHHuy1S8IRqCgDFHG-16" target="j0-GHHuy1S8IRqCgDFHG-20" edge="1">
          <mxGeometry width="50" height="50" relative="1" as="geometry">
            <mxPoint x="390" y="320" as="sourcePoint" />
            <mxPoint x="440" y="270" as="targetPoint" />
          </mxGeometry>
        </mxCell>
        <mxCell id="j0-GHHuy1S8IRqCgDFHG-24" value="" style="endArrow=none;html=1;rounded=0;entryX=0.075;entryY=0.772;entryDx=0;entryDy=0;entryPerimeter=0;exitX=0.5;exitY=0;exitDx=0;exitDy=0;" parent="1" source="j0-GHHuy1S8IRqCgDFHG-16" target="j0-GHHuy1S8IRqCgDFHG-21" edge="1">
          <mxGeometry width="50" height="50" relative="1" as="geometry">
            <mxPoint x="390" y="320" as="sourcePoint" />
            <mxPoint x="440" y="270" as="targetPoint" />
          </mxGeometry>
        </mxCell>
        <mxCell id="j0-GHHuy1S8IRqCgDFHG-25" value="&lt;i&gt;&lt;b&gt;user_id&lt;/b&gt;&lt;/i&gt;" style="ellipse;whiteSpace=wrap;html=1;fillColor=#ffe6cc;strokeColor=#d79b00;" parent="1" vertex="1">
          <mxGeometry x="827" y="180" width="100" height="50" as="geometry" />
        </mxCell>
        <mxCell id="j0-GHHuy1S8IRqCgDFHG-26" value="" style="endArrow=none;html=1;rounded=0;entryX=0.056;entryY=0.668;entryDx=0;entryDy=0;entryPerimeter=0;" parent="1" target="j0-GHHuy1S8IRqCgDFHG-25" edge="1">
          <mxGeometry width="50" height="50" relative="1" as="geometry">
            <mxPoint x="630" y="240" as="sourcePoint" />
            <mxPoint x="440" y="270" as="targetPoint" />
          </mxGeometry>
        </mxCell>
        <mxCell id="j0-GHHuy1S8IRqCgDFHG-27" value="has" style="rhombus;whiteSpace=wrap;html=1;" parent="1" vertex="1">
          <mxGeometry x="350" y="220" width="80" height="80" as="geometry" />
        </mxCell>
        <mxCell id="j0-GHHuy1S8IRqCgDFHG-28" value="" style="endArrow=none;html=1;rounded=0;exitX=1;exitY=0.5;exitDx=0;exitDy=0;entryX=0;entryY=0.5;entryDx=0;entryDy=0;" parent="1" source="j0-GHHuy1S8IRqCgDFHG-1" target="j0-GHHuy1S8IRqCgDFHG-27" edge="1">
          <mxGeometry width="50" height="50" relative="1" as="geometry">
            <mxPoint x="390" y="320" as="sourcePoint" />
            <mxPoint x="440" y="270" as="targetPoint" />
          </mxGeometry>
        </mxCell>
        <mxCell id="j0-GHHuy1S8IRqCgDFHG-29" value="" style="endArrow=none;html=1;rounded=0;entryX=0;entryY=0.5;entryDx=0;entryDy=0;exitX=1;exitY=0.5;exitDx=0;exitDy=0;" parent="1" source="j0-GHHuy1S8IRqCgDFHG-27" target="j0-GHHuy1S8IRqCgDFHG-16" edge="1">
          <mxGeometry width="50" height="50" relative="1" as="geometry">
            <mxPoint x="390" y="320" as="sourcePoint" />
            <mxPoint x="440" y="270" as="targetPoint" />
          </mxGeometry>
        </mxCell>
        <mxCell id="j0-GHHuy1S8IRqCgDFHG-30" value="&lt;font style=&quot;font-size: 22px;&quot;&gt;&lt;b&gt;1&lt;/b&gt;&lt;/font&gt;" style="text;html=1;align=center;verticalAlign=middle;resizable=0;points=[];autosize=1;strokeColor=none;fillColor=none;" parent="1" vertex="1">
          <mxGeometry x="230" y="223" width="40" height="40" as="geometry" />
        </mxCell>
        <mxCell id="j0-GHHuy1S8IRqCgDFHG-31" value="&lt;font style=&quot;font-size: 22px;&quot;&gt;&lt;b&gt;n&lt;/b&gt;&lt;/font&gt;" style="text;html=1;align=center;verticalAlign=middle;resizable=0;points=[];autosize=1;strokeColor=none;fillColor=none;" parent="1" vertex="1">
          <mxGeometry x="480" y="223" width="40" height="40" as="geometry" />
        </mxCell>
        <mxCell id="j0-GHHuy1S8IRqCgDFHG-32" value="&lt;b&gt;COMMENT&lt;/b&gt;" style="rounded=0;whiteSpace=wrap;html=1;fillColor=#d5e8d4;strokeColor=#82b366;" parent="1" vertex="1">
          <mxGeometry x="570" y="460" width="120" height="60" as="geometry" />
        </mxCell>
        <mxCell id="j0-GHHuy1S8IRqCgDFHG-33" value="date" style="ellipse;whiteSpace=wrap;html=1;" parent="1" vertex="1">
          <mxGeometry x="870" y="250" width="100" height="40" as="geometry" />
        </mxCell>
        <mxCell id="j0-GHHuy1S8IRqCgDFHG-34" value="" style="endArrow=none;html=1;rounded=0;entryX=0.5;entryY=0;entryDx=0;entryDy=0;exitX=0;exitY=0.5;exitDx=0;exitDy=0;" parent="1" source="j0-GHHuy1S8IRqCgDFHG-33" target="j0-GHHuy1S8IRqCgDFHG-16" edge="1">
          <mxGeometry width="50" height="50" relative="1" as="geometry">
            <mxPoint x="420" y="320" as="sourcePoint" />
            <mxPoint x="470" y="270" as="targetPoint" />
          </mxGeometry>
        </mxCell>
        <mxCell id="j0-GHHuy1S8IRqCgDFHG-35" value="comment_id" style="ellipse;whiteSpace=wrap;html=1;" parent="1" vertex="1">
          <mxGeometry x="480" y="585" width="100" height="50" as="geometry" />
        </mxCell>
        <mxCell id="j0-GHHuy1S8IRqCgDFHG-36" value="" style="endArrow=none;html=1;rounded=0;exitX=0.5;exitY=1;exitDx=0;exitDy=0;entryX=0.5;entryY=0;entryDx=0;entryDy=0;" parent="1" source="j0-GHHuy1S8IRqCgDFHG-32" target="j0-GHHuy1S8IRqCgDFHG-35" edge="1">
          <mxGeometry width="50" height="50" relative="1" as="geometry">
            <mxPoint x="420" y="320" as="sourcePoint" />
            <mxPoint x="470" y="270" as="targetPoint" />
          </mxGeometry>
        </mxCell>
        <mxCell id="j0-GHHuy1S8IRqCgDFHG-37" value="comment" style="ellipse;whiteSpace=wrap;html=1;" parent="1" vertex="1">
          <mxGeometry x="590" y="630" width="110" height="50" as="geometry" />
        </mxCell>
        <mxCell id="j0-GHHuy1S8IRqCgDFHG-38" value="" style="endArrow=none;html=1;rounded=0;entryX=0.5;entryY=0;entryDx=0;entryDy=0;exitX=0.5;exitY=1;exitDx=0;exitDy=0;" parent="1" source="j0-GHHuy1S8IRqCgDFHG-32" target="j0-GHHuy1S8IRqCgDFHG-37" edge="1">
          <mxGeometry width="50" height="50" relative="1" as="geometry">
            <mxPoint x="640" y="520" as="sourcePoint" />
            <mxPoint x="470" y="270" as="targetPoint" />
          </mxGeometry>
        </mxCell>
        <mxCell id="j0-GHHuy1S8IRqCgDFHG-39" value="blog_id" style="ellipse;whiteSpace=wrap;html=1;fillColor=#dae8fc;strokeColor=#6c8ebf;" parent="1" vertex="1">
          <mxGeometry x="727" y="600" width="100" height="55" as="geometry" />
        </mxCell>
        <mxCell id="j0-GHHuy1S8IRqCgDFHG-40" value="" style="endArrow=none;html=1;rounded=0;exitX=0.5;exitY=1;exitDx=0;exitDy=0;entryX=0;entryY=0.5;entryDx=0;entryDy=0;" parent="1" source="j0-GHHuy1S8IRqCgDFHG-32" target="j0-GHHuy1S8IRqCgDFHG-39" edge="1">
          <mxGeometry width="50" height="50" relative="1" as="geometry">
            <mxPoint x="420" y="320" as="sourcePoint" />
            <mxPoint x="760" y="380" as="targetPoint" />
          </mxGeometry>
        </mxCell>
        <mxCell id="j0-GHHuy1S8IRqCgDFHG-41" value="&lt;b&gt;&lt;i&gt;user_id&lt;/i&gt;&lt;/b&gt;" style="ellipse;whiteSpace=wrap;html=1;fillColor=#ffe6cc;strokeColor=#d79b00;" parent="1" vertex="1">
          <mxGeometry x="810" y="530" width="103" height="50" as="geometry" />
        </mxCell>
        <mxCell id="j0-GHHuy1S8IRqCgDFHG-42" value="" style="endArrow=none;html=1;rounded=0;exitX=0.5;exitY=1;exitDx=0;exitDy=0;entryX=0;entryY=0.5;entryDx=0;entryDy=0;" parent="1" source="j0-GHHuy1S8IRqCgDFHG-32" target="j0-GHHuy1S8IRqCgDFHG-41" edge="1">
          <mxGeometry width="50" height="50" relative="1" as="geometry">
            <mxPoint x="420" y="320" as="sourcePoint" />
            <mxPoint x="470" y="270" as="targetPoint" />
          </mxGeometry>
        </mxCell>
        <mxCell id="hXctK4jglnO3i2T3Rfzf-2" value="has" style="rhombus;whiteSpace=wrap;html=1;" parent="1" vertex="1">
          <mxGeometry x="65" y="450" width="80" height="80" as="geometry" />
        </mxCell>
        <mxCell id="hXctK4jglnO3i2T3Rfzf-3" value="" style="endArrow=none;html=1;rounded=0;entryX=0.5;entryY=1;entryDx=0;entryDy=0;exitX=0.5;exitY=0;exitDx=0;exitDy=0;" parent="1" source="hXctK4jglnO3i2T3Rfzf-2" target="j0-GHHuy1S8IRqCgDFHG-1" edge="1">
          <mxGeometry width="50" height="50" relative="1" as="geometry">
            <mxPoint x="460" y="380" as="sourcePoint" />
            <mxPoint x="510" y="330" as="targetPoint" />
          </mxGeometry>
        </mxCell>
        <mxCell id="hXctK4jglnO3i2T3Rfzf-4" value="" style="endArrow=none;html=1;rounded=0;exitX=1;exitY=0.5;exitDx=0;exitDy=0;entryX=0;entryY=0.5;entryDx=0;entryDy=0;" parent="1" source="hXctK4jglnO3i2T3Rfzf-2" target="j0-GHHuy1S8IRqCgDFHG-32" edge="1">
          <mxGeometry width="50" height="50" relative="1" as="geometry">
            <mxPoint x="460" y="380" as="sourcePoint" />
            <mxPoint x="510" y="330" as="targetPoint" />
          </mxGeometry>
        </mxCell>
        <mxCell id="hXctK4jglnO3i2T3Rfzf-5" value="&lt;font style=&quot;font-size: 22px;&quot;&gt;&lt;b&gt;1&lt;/b&gt;&lt;/font&gt;" style="text;html=1;align=center;verticalAlign=middle;resizable=0;points=[];autosize=1;strokeColor=none;fillColor=none;" parent="1" vertex="1">
          <mxGeometry x="70" y="353" width="40" height="40" as="geometry" />
        </mxCell>
        <mxCell id="hXctK4jglnO3i2T3Rfzf-6" value="&lt;font style=&quot;font-size: 22px;&quot;&gt;&lt;b&gt;n&lt;/b&gt;&lt;/font&gt;" style="text;html=1;align=center;verticalAlign=middle;resizable=0;points=[];autosize=1;strokeColor=none;fillColor=none;" parent="1" vertex="1">
          <mxGeometry x="300" y="453" width="40" height="40" as="geometry" />
        </mxCell>
        <mxCell id="hXctK4jglnO3i2T3Rfzf-8" value="has" style="rhombus;whiteSpace=wrap;html=1;" parent="1" vertex="1">
          <mxGeometry x="595" y="343" width="70" height="60" as="geometry" />
        </mxCell>
        <mxCell id="hXctK4jglnO3i2T3Rfzf-9" value="" style="endArrow=none;html=1;rounded=0;entryX=0.5;entryY=1;entryDx=0;entryDy=0;exitX=0.5;exitY=0;exitDx=0;exitDy=0;" parent="1" source="hXctK4jglnO3i2T3Rfzf-8" target="j0-GHHuy1S8IRqCgDFHG-16" edge="1">
          <mxGeometry width="50" height="50" relative="1" as="geometry">
            <mxPoint x="460" y="510" as="sourcePoint" />
            <mxPoint x="510" y="460" as="targetPoint" />
          </mxGeometry>
        </mxCell>
        <mxCell id="hXctK4jglnO3i2T3Rfzf-10" value="" style="endArrow=none;html=1;rounded=0;entryX=0.5;entryY=1;entryDx=0;entryDy=0;exitX=0.5;exitY=0;exitDx=0;exitDy=0;" parent="1" source="j0-GHHuy1S8IRqCgDFHG-32" target="hXctK4jglnO3i2T3Rfzf-8" edge="1">
          <mxGeometry width="50" height="50" relative="1" as="geometry">
            <mxPoint x="630" y="450" as="sourcePoint" />
            <mxPoint x="510" y="460" as="targetPoint" />
          </mxGeometry>
        </mxCell>
        <mxCell id="hXctK4jglnO3i2T3Rfzf-11" value="&lt;font style=&quot;font-size: 17px;&quot;&gt;&lt;b&gt;1&lt;/b&gt;&lt;/font&gt;" style="text;html=1;align=center;verticalAlign=middle;resizable=0;points=[];autosize=1;strokeColor=none;fillColor=none;" parent="1" vertex="1">
          <mxGeometry x="600" y="300" width="30" height="30" as="geometry" />
        </mxCell>
        <mxCell id="hXctK4jglnO3i2T3Rfzf-12" value="&lt;font style=&quot;font-size: 17px;&quot;&gt;&lt;b&gt;n&lt;/b&gt;&lt;/font&gt;" style="text;html=1;align=center;verticalAlign=middle;resizable=0;points=[];autosize=1;strokeColor=none;fillColor=none;" parent="1" vertex="1">
          <mxGeometry x="600" y="420" width="30" height="30" as="geometry" />
        </mxCell>
        <mxCell id="hXctK4jglnO3i2T3Rfzf-13" value="&lt;b&gt;CATEGORY&lt;/b&gt;" style="rounded=0;whiteSpace=wrap;html=1;fillColor=#d5e8d4;strokeColor=#82b366;" parent="1" vertex="1">
          <mxGeometry x="1100" y="380" width="120" height="60" as="geometry" />
        </mxCell>
        <mxCell id="hXctK4jglnO3i2T3Rfzf-14" value="category_id" style="ellipse;whiteSpace=wrap;html=1;" parent="1" vertex="1">
          <mxGeometry x="1055" y="215.5" width="105" height="55" as="geometry" />
        </mxCell>
        <mxCell id="hXctK4jglnO3i2T3Rfzf-15" value="title" style="ellipse;whiteSpace=wrap;html=1;" parent="1" vertex="1">
          <mxGeometry x="1180" y="208" width="100" height="55" as="geometry" />
        </mxCell>
        <mxCell id="hXctK4jglnO3i2T3Rfzf-16" value="" style="endArrow=none;html=1;rounded=0;entryX=0.5;entryY=1;entryDx=0;entryDy=0;exitX=0.5;exitY=0;exitDx=0;exitDy=0;" parent="1" source="hXctK4jglnO3i2T3Rfzf-13" target="hXctK4jglnO3i2T3Rfzf-14" edge="1">
          <mxGeometry width="50" height="50" relative="1" as="geometry">
            <mxPoint x="160" y="750" as="sourcePoint" />
            <mxPoint x="510" y="720" as="targetPoint" />
          </mxGeometry>
        </mxCell>
        <mxCell id="hXctK4jglnO3i2T3Rfzf-17" value="" style="endArrow=none;html=1;rounded=0;entryX=0.5;entryY=1;entryDx=0;entryDy=0;exitX=0.5;exitY=0;exitDx=0;exitDy=0;" parent="1" source="hXctK4jglnO3i2T3Rfzf-13" target="hXctK4jglnO3i2T3Rfzf-15" edge="1">
          <mxGeometry width="50" height="50" relative="1" as="geometry">
            <mxPoint x="110" y="730" as="sourcePoint" />
            <mxPoint x="510" y="720" as="targetPoint" />
          </mxGeometry>
        </mxCell>
        <mxCell id="hXctK4jglnO3i2T3Rfzf-18" value="has" style="rhombus;whiteSpace=wrap;html=1;" parent="1" vertex="1">
          <mxGeometry x="840" y="380" width="60" height="60" as="geometry" />
        </mxCell>
        <mxCell id="hXctK4jglnO3i2T3Rfzf-19" value="" style="endArrow=none;html=1;rounded=0;exitX=0.5;exitY=1;exitDx=0;exitDy=0;entryX=0;entryY=0.5;entryDx=0;entryDy=0;" parent="1" source="j0-GHHuy1S8IRqCgDFHG-16" target="hXctK4jglnO3i2T3Rfzf-18" edge="1">
          <mxGeometry width="50" height="50" relative="1" as="geometry">
            <mxPoint x="890" y="480" as="sourcePoint" />
            <mxPoint x="940" y="430" as="targetPoint" />
          </mxGeometry>
        </mxCell>
        <mxCell id="hXctK4jglnO3i2T3Rfzf-20" value="" style="endArrow=none;html=1;rounded=0;entryX=0;entryY=0.5;entryDx=0;entryDy=0;exitX=1;exitY=0.5;exitDx=0;exitDy=0;" parent="1" source="hXctK4jglnO3i2T3Rfzf-18" target="hXctK4jglnO3i2T3Rfzf-13" edge="1">
          <mxGeometry width="50" height="50" relative="1" as="geometry">
            <mxPoint x="890" y="480" as="sourcePoint" />
            <mxPoint x="940" y="430" as="targetPoint" />
          </mxGeometry>
        </mxCell>
        <mxCell id="hXctK4jglnO3i2T3Rfzf-21" value="&lt;font style=&quot;font-size: 16px;&quot;&gt;&lt;b style=&quot;&quot;&gt;1&lt;/b&gt;&lt;/font&gt;" style="text;html=1;align=center;verticalAlign=middle;resizable=0;points=[];autosize=1;strokeColor=none;fillColor=none;" parent="1" vertex="1">
          <mxGeometry x="735" y="328" width="30" height="30" as="geometry" />
        </mxCell>
        <mxCell id="hXctK4jglnO3i2T3Rfzf-22" value="&lt;font style=&quot;font-size: 16px;&quot;&gt;&lt;b&gt;n&lt;/b&gt;&lt;/font&gt;" style="text;html=1;align=center;verticalAlign=middle;resizable=0;points=[];autosize=1;strokeColor=none;fillColor=none;" parent="1" vertex="1">
          <mxGeometry x="975" y="378" width="30" height="30" as="geometry" />
        </mxCell>
        <mxCell id="hXctK4jglnO3i2T3Rfzf-23" value="category_id" style="ellipse;whiteSpace=wrap;html=1;fillColor=#f8cecc;strokeColor=#b85450;" parent="1" vertex="1">
          <mxGeometry x="620" y="50" width="80" height="40" as="geometry" />
        </mxCell>
        <mxCell id="hXctK4jglnO3i2T3Rfzf-24" value="" style="endArrow=none;html=1;rounded=0;entryX=0.5;entryY=1;entryDx=0;entryDy=0;exitX=0.5;exitY=0;exitDx=0;exitDy=0;" parent="1" source="j0-GHHuy1S8IRqCgDFHG-16" target="hXctK4jglnO3i2T3Rfzf-23" edge="1">
          <mxGeometry width="50" height="50" relative="1" as="geometry">
            <mxPoint x="850" y="330" as="sourcePoint" />
            <mxPoint x="900" y="280" as="targetPoint" />
          </mxGeometry>
        </mxCell>
        <mxCell id="SfKpgmn7Ye3Fn_MJberI-1" value="&lt;b&gt;ROLE&lt;/b&gt;" style="rounded=0;whiteSpace=wrap;html=1;fillColor=#d5e8d4;strokeColor=#82b366;" parent="1" vertex="1">
          <mxGeometry x="-360" y="348" width="120" height="60" as="geometry" />
        </mxCell>
        <mxCell id="SfKpgmn7Ye3Fn_MJberI-2" value="role_id" style="ellipse;whiteSpace=wrap;html=1;" parent="1" vertex="1">
          <mxGeometry x="-490" y="175" width="110" height="60" as="geometry" />
        </mxCell>
        <mxCell id="SfKpgmn7Ye3Fn_MJberI-3" value="role" style="ellipse;whiteSpace=wrap;html=1;" parent="1" vertex="1">
          <mxGeometry x="-290" y="170" width="110" height="70" as="geometry" />
        </mxCell>
        <mxCell id="SfKpgmn7Ye3Fn_MJberI-4" value="" style="endArrow=none;html=1;rounded=0;entryX=0.5;entryY=1;entryDx=0;entryDy=0;exitX=0.5;exitY=0;exitDx=0;exitDy=0;" parent="1" source="SfKpgmn7Ye3Fn_MJberI-1" target="SfKpgmn7Ye3Fn_MJberI-2" edge="1">
          <mxGeometry width="50" height="50" relative="1" as="geometry">
            <mxPoint x="380" y="440" as="sourcePoint" />
            <mxPoint x="430" y="390" as="targetPoint" />
          </mxGeometry>
        </mxCell>
        <mxCell id="SfKpgmn7Ye3Fn_MJberI-5" value="" style="endArrow=none;html=1;rounded=0;entryX=0.5;entryY=1;entryDx=0;entryDy=0;exitX=0.5;exitY=0;exitDx=0;exitDy=0;" parent="1" source="SfKpgmn7Ye3Fn_MJberI-1" target="SfKpgmn7Ye3Fn_MJberI-3" edge="1">
          <mxGeometry width="50" height="50" relative="1" as="geometry">
            <mxPoint x="380" y="440" as="sourcePoint" />
            <mxPoint x="430" y="390" as="targetPoint" />
          </mxGeometry>
        </mxCell>
        <mxCell id="iEWXciJeq2zek4W5Rt7Z-1" value="description" style="ellipse;whiteSpace=wrap;html=1;" vertex="1" parent="1">
          <mxGeometry x="1300" y="235" width="100" height="50" as="geometry" />
        </mxCell>
        <mxCell id="iEWXciJeq2zek4W5Rt7Z-2" value="" style="endArrow=none;html=1;rounded=0;entryX=0.5;entryY=1;entryDx=0;entryDy=0;exitX=0.5;exitY=0;exitDx=0;exitDy=0;" edge="1" parent="1" source="hXctK4jglnO3i2T3Rfzf-13" target="iEWXciJeq2zek4W5Rt7Z-1">
          <mxGeometry width="50" height="50" relative="1" as="geometry">
            <mxPoint x="1190" y="320" as="sourcePoint" />
            <mxPoint x="1240" y="270" as="targetPoint" />
          </mxGeometry>
        </mxCell>
      </root>
    </mxGraphModel>
  </diagram>
</mxfile>
